<?xml version="1.0" encoding="UTF-8" standalone="no"?>
<svg width="100px" height="100px" viewBox="0 0 100 100" version="1.1" xmlns="http://www.w3.org/2000/svg" xmlns:xlink="http://www.w3.org/1999/xlink">
    <!-- Generator: Sketch 40.3 (33839) - http://www.bohemiancoding.com/sketch -->
    <title>Slice</title>
    <desc>Created with Sketch.</desc>
    <defs></defs>
    <g id="Page-1" stroke="none" stroke-width="1" fill="none" fill-rule="evenodd">
        <rect id="Rectangle" fill="#00AFA0" x="0" y="0" width="100" height="100" rx="8"></rect>
        <path d="M51.2853524,13.7096965 C50.2208076,12.7634345 48.6831318,12.7634345 47.7368698,13.7096965 L14.8542643,43.9900814 C13.080023,45.64604 14.2628506,48.4848261 16.6285056,48.4848261 L21.1232503,48.4848261 L21.1232503,76.8726869 C21.1232503,80.7760178 24.3168846,83.9696521 28.2202155,83.9696521 L70.8020067,83.9696521 C74.7053376,83.9696521 77.898972,80.7760178 77.898972,76.8726869 L77.898972,48.4848261 L82.3937166,48.4848261 C84.7593717,48.4848261 85.9421992,45.64604 84.1679579,43.9900814 L51.2853524,13.7096965 L51.2853524,13.7096965 Z M34.0160704,64.9261288 C33.7795049,65.2809771 33.3063739,65.0444115 32.8332429,65.0444115 L29.9944568,65.0444115 C28.2202155,65.0444115 27.0373879,64.0981495 27.0373879,62.2056255 C27.1556707,59.3668394 29.9944568,57.9474463 33.0698084,56.646336 C35.1988979,55.700074 35.5537462,54.8720947 35.5537462,53.9258327 C35.5537462,52.9795707 34.9623324,52.1515914 34.2526359,51.4418949 C32.9515256,50.2590674 32.3601119,48.6031088 32.3601119,46.7105848 C32.3601119,43.1621021 34.4892014,40.0867506 38.2742495,40.0867506 C40.5216218,40.0867506 42.1775804,41.1512953 43.2421252,42.8072539 C40.5216218,44.9363434 38.8656633,48.1299778 38.8656633,52.1515914 C38.8656633,54.3989637 39.4570771,56.5280533 40.6399046,58.3022946 C41.1130356,59.0119911 40.8764701,59.6034049 40.0484908,59.9582531 C38.037684,61.0227979 35.4354634,62.442191 34.0160704,64.9261288 L34.0160704,64.9261288 Z M58.5006004,73.3242043 L40.5216218,73.3242043 C38.510815,73.3242043 36.9731392,71.4316802 36.9731392,69.3025907 C37.091422,66.1089563 40.4033391,64.4529978 43.8335389,62.915322 C46.199194,61.8507772 46.5540423,61.0227979 46.5540423,59.9582531 C46.5540423,58.8937084 45.8443458,57.9474463 45.1346492,57.2377498 C43.7152562,55.9366395 43.0055597,54.1623982 43.0055597,52.0333087 C43.0055597,48.1299778 45.3712147,44.6997779 49.6293939,44.6997779 C53.887573,44.6997779 56.2532281,48.1299778 56.2532281,52.0333087 C56.2532281,54.1623982 55.5435315,55.9366395 54.1241385,57.2377498 C53.2961592,57.9474463 52.7047455,58.8937084 52.7047455,59.9582531 C52.7047455,60.9045152 53.0595937,61.8507772 55.4252488,62.915322 C58.8554486,64.4529978 62.1673657,66.1089563 62.2856485,69.3025907 C62.049083,71.4316802 60.5114072,73.3242043 58.5006004,73.3242043 L58.5006004,73.3242043 Z M69.0277654,65.0444115 L66.1889794,65.0444115 C65.7158483,65.0444115 65.2427173,65.2809771 65.0061518,64.9261288 C63.5867588,62.442191 60.9845382,61.3776462 58.8554486,60.3131014 C58.1457521,59.9582531 57.9091866,59.1302739 58.3823176,58.4205774 C59.5651452,56.646336 60.1565589,54.5172465 60.1565589,52.2698742 C60.1565589,48.3665433 58.5006004,45.0546262 55.8983798,43.0438194 C56.8446418,41.3878608 58.5006004,40.3233161 60.8662554,40.3233161 C64.7695863,40.3233161 66.7803931,43.3986677 66.7803931,46.9471503 C66.7803931,48.8396743 66.1889794,50.4956329 64.8878691,51.6784604 C64.1781725,52.3881569 63.5867588,53.2161362 63.5867588,54.1623982 C63.5867588,55.1086603 63.941607,55.9366395 66.0706966,56.8829016 C69.1460482,58.3022946 72.103117,59.6034049 72.103117,62.442191 C71.9848343,64.0981495 70.8020067,65.0444115 69.0277654,65.0444115 L69.0277654,65.0444115 Z" id="Shape" fill="#FFFFFF"></path>
    </g>
</svg>